HIERARCHY
ROOT hip
{
  OFFSET 2.13865 82.0876 54.752
  CHANNELS 6 Xposition Yposition Zposition Zrotation Xrotation Yrotation
  JOINT abdomen
  {
    OFFSET 0 20.6881 -0.73152
    CHANNELS 3 Zrotation Xrotation Yrotation
    JOINT chest
    {
      OFFSET 0 11.7043 -0.48768
      CHANNELS 3 Zrotation Xrotation Yrotation
      JOINT neck
      {
        OFFSET 0 22.1894 -2.19456
        CHANNELS 3 Zrotation Xrotation Yrotation
        JOINT head
        {
          OFFSET -0.24384 7.07133 1.2192
          CHANNELS 3 Zrotation Xrotation Yrotation
          JOINT leftEye
          {
            OFFSET 4.14528 8.04674 8.04672
            CHANNELS 3 Zrotation Xrotation Yrotation
            End Site
            {
              OFFSET 1 0 0
            }
          }
          JOINT rightEye
          {
            OFFSET -3.6576 8.04674 8.04672
            CHANNELS 3 Zrotation Xrotation Yrotation
            End Site
            {
              OFFSET 1 0 0
            }
          }
        }
      }
      JOINT rCollar
      {
        OFFSET -2.68224 19.2634 -4.8768
        CHANNELS 3 Zrotation Xrotation Yrotation
        JOINT rShldr
        {
          OFFSET -8.77824 -1.95073 1.46304
          CHANNELS 3 Zrotation Xrotation Yrotation
          JOINT rForeArm
          {
            OFFSET -28.1742 -1.7115 0.48768
            CHANNELS 3 Zrotation Xrotation Yrotation
            JOINT rHand
            {
              OFFSET -22.5879 0.773209 7.07136
              CHANNELS 3 Zrotation Xrotation Yrotation
              JOINT rThumb1
              {
                OFFSET -1.2192 -0.487915 3.41376
                CHANNELS 3 Zrotation Xrotation Yrotation
                JOINT rThumb2
                {
                  OFFSET -3.37035 -0.52449 3.41376
                  CHANNELS 3 Zrotation Xrotation Yrotation
                  End Site
                  {
                    OFFSET -1.78271 -1.18214 1.43049
                  }
                }
              }
              JOINT rIndex1
              {
                OFFSET -7.75947 0.938293 5.60832
                CHANNELS 3 Zrotation Xrotation Yrotation
                JOINT rIndex2
                {
                  OFFSET -2.54057 -0.884171 1.56538
                  CHANNELS 3 Zrotation Xrotation Yrotation
                  End Site
                  {
                    OFFSET -1.62519 -0.234802 1.16502
                  }
                }
              }
              JOINT rMid1
              {
                OFFSET -8.24714 1.18213 3.41376
                CHANNELS 3 Zrotation Xrotation Yrotation
                JOINT rMid2
                {
                  OFFSET -3.10165 -0.590103 1.0647
                  CHANNELS 3 Zrotation Xrotation Yrotation
                  End Site
                  {
                    OFFSET -2.48547 -0.328903 0.83742
                  }
                }
              }
              JOINT rRing1
              {
                OFFSET -8.82822 0.546677 1.51678
                CHANNELS 3 Zrotation Xrotation Yrotation
                JOINT rRing2
                {
                  OFFSET -2.60934 -0.819778 -0.0198488
                  CHANNELS 3 Zrotation Xrotation Yrotation
                  End Site
                  {
                    OFFSET -2.33842 -0.294052 0.168128
                  }
                }
              }
              JOINT rPinky1
              {
                OFFSET -8.27202 -0.0477905 -0.4584
                CHANNELS 3 Zrotation Xrotation Yrotation
                JOINT rPinky2
                {
                  OFFSET -1.82734 -0.647385 -0.700984
                  CHANNELS 3 Zrotation Xrotation Yrotation
                  End Site
                  {
                    OFFSET -1.69225 -0.51767 -0.607171
                  }
                }
              }
            }
          }
        }
      }
      JOINT lCollar
      {
        OFFSET 2.68224 19.2634 -4.8768
        CHANNELS 3 Zrotation Xrotation Yrotation
        JOINT lShldr
        {
          OFFSET 8.77824 -1.95073 1.46304
          CHANNELS 3 Zrotation Xrotation Yrotation
          JOINT lForeArm
          {
            OFFSET 28.1742 -1.7115 0.48768
            CHANNELS 3 Zrotation Xrotation Yrotation
            JOINT lHand
            {
              OFFSET 22.5879 0.773209 7.07136
              CHANNELS 3 Zrotation Xrotation Yrotation
              JOINT lThumb1
              {
                OFFSET 1.2192 -0.487915 3.41376
                CHANNELS 3 Zrotation Xrotation Yrotation
                JOINT lThumb2
                {
                  OFFSET 3.37035 -0.52449 3.41376
                  CHANNELS 3 Zrotation Xrotation Yrotation
                  End Site
                  {
                    OFFSET 1.78271 -1.18214 1.43049
                  }
                }
              }
              JOINT lIndex1
              {
                OFFSET 7.75947 0.938293 5.60832
                CHANNELS 3 Zrotation Xrotation Yrotation
                JOINT lIndex2
                {
                  OFFSET 2.54057 -0.884171 1.56538
                  CHANNELS 3 Zrotation Xrotation Yrotation
                  End Site
                  {
                    OFFSET 1.62519 -0.234802 1.16502
                  }
                }
              }
              JOINT lMid1
              {
                OFFSET 8.24714 1.18213 3.41376
                CHANNELS 3 Zrotation Xrotation Yrotation
                JOINT lMid2
                {
                  OFFSET 3.10165 -0.590103 1.0647
                  CHANNELS 3 Zrotation Xrotation Yrotation
                  End Site
                  {
                    OFFSET 2.48547 -0.328903 0.83742
                  }
                }
              }
              JOINT lRing1
              {
                OFFSET 8.82822 0.546677 1.51678
                CHANNELS 3 Zrotation Xrotation Yrotation
                JOINT lRing2
                {
                  OFFSET 2.60934 -0.819778 -0.0198488
                  CHANNELS 3 Zrotation Xrotation Yrotation
                  End Site
                  {
                    OFFSET 2.33842 -0.294052 0.168128
                  }
                }
              }
              JOINT lPinky1
              {
                OFFSET 8.27202 -0.0477905 -0.4584
                CHANNELS 3 Zrotation Xrotation Yrotation
                JOINT lPinky2
                {
                  OFFSET 1.82734 -0.647385 -0.700984
                  CHANNELS 3 Zrotation Xrotation Yrotation
                  End Site
                  {
                    OFFSET 1.69225 -0.51767 -0.607171
                  }
                }
              }
            }
          }
        }
      }
    }
  }
  JOINT rButtock
  {
    OFFSET -8.77824 4.35084 1.2192
    CHANNELS 3 Zrotation Xrotation Yrotation
    JOINT rThigh
    {
      OFFSET 0 -1.70687 -2.19456
      CHANNELS 3 Zrotation Xrotation Yrotation
      JOINT rShin
      {
        OFFSET 0 -36.8199 0.73152
        CHANNELS 3 Zrotation Xrotation Yrotation
        JOINT rFoot
        {
          OFFSET 0.73152 -45.1104 -5.12064
          CHANNELS 3 Zrotation Xrotation Yrotation
          End Site
          {
            OFFSET -1.1221 -3.69964 12.103
          }
        }
      }
    }
  }
  JOINT lButtock
  {
    OFFSET 8.77824 4.35084 1.2192
    CHANNELS 3 Zrotation Xrotation Yrotation
    JOINT lThigh
    {
      OFFSET 0 -1.70687 -2.19456
      CHANNELS 3 Zrotation Xrotation Yrotation
      JOINT lShin
      {
        OFFSET 0 -36.8199 0.73152
        CHANNELS 3 Zrotation Xrotation Yrotation
        JOINT lFoot
        {
          OFFSET -0.73152 -45.1104 -5.12064
          CHANNELS 3 Zrotation Xrotation Yrotation
          End Site
          {
            OFFSET 1.1221 -3.69964 12.103
          }
        }
      }
    }
  }
}
MOTION
Frames:	7
Frame Time:	0.00833333
1.56153 82.581 53.1374 -5.29745 10.958 -5.82725 2.39001 -6.98274 8.65114 -3.53227 -7.12522 1.97167 -1.36955 -2.43999 -3.803 11.7069 7.86347 -7.91828 -0 0 0 -0 0 0 5.98715e-013 2.30031e-013 -1.01607e-013 -17.5091 35.1654 87.9652 -26.4985 -24.7857 58.92 -0.0438387 5.21357 0.73778 -3.44044e-009 -2.44585e-009 5.23241e-010 -5.93985e-009 -4.21239e-009 9.26078e-010 -3.44044e-009 -2.44584e-009 5.23231e-010 7.73091 5.47488 0.417314 -3.44044e-009 -2.44585e-009 5.23238e-010 2.90554 0.965183 0.102902 -3.44044e-009 -2.44585e-009 5.23236e-010 10.2786 0.731801 0.0259123 -3.44044e-009 -2.44584e-009 5.23241e-010 2.22167 -0.733487 -0.20892 5.98623e-013 2.3003e-013 -1.01746e-013 12.2683 35.022 -66.0743 25.3909 -21.9614 -54.3708 5.55178 -54.2676 11.0826 1.28517e-009 -2.2528e-009 5.54816e-011 2.21117e-009 -3.77225e-009 1.49539e-010 1.28517e-009 -2.25282e-009 5.54865e-011 -7.73091 5.47488 -0.417314 1.28517e-009 -2.25282e-009 5.54707e-011 -2.90554 0.965183 -0.102902 1.28517e-009 -2.2528e-009 5.54787e-011 -10.2786 0.731801 -0.0259123 1.28518e-009 -2.2528e-009 5.54706e-011 -2.22167 -0.733487 0.20892 -2.03217e-016 0 -3.88251e-019 4.39162 -8.28026 24.9709 0.0466126 -1.33374 0.382136 -3.97207 -4.01948 -21.6822 2.03217e-016 0 3.88251e-019 -1.75737 -5.38929 -54.0913 0.143038 14.4656 1.00575 37.1896 -22.6543 69.7536 
1.60177 82.564 53.1617 -5.35052 10.8501 -5.57697 2.35636 -7.06762 8.44569 -3.48622 -7.13593 1.91477 -1.29672 -2.40822 -3.79315 11.6864 8.29762 -7.96606 -0 0 0 -0 0 0 6.83638e-013 2.67961e-013 -1.1122e-013 -17.2963 35.373 87.2289 -26.664 -25.2742 59.7214 -0.0710765 7.58452 1.07227 -4.14028e-009 -3.00354e-009 8.65089e-010 -7.14897e-009 -5.17484e-009 1.52081e-009 -4.14028e-009 -3.00354e-009 8.65082e-010 7.73091 5.47488 0.417314 -4.14029e-009 -3.00354e-009 8.65089e-010 2.90554 0.965183 0.102902 -4.14028e-009 -3.00354e-009 8.65085e-010 10.2786 0.731801 0.0259123 -4.14029e-009 -3.00354e-009 8.65092e-010 2.22167 -0.733487 -0.20892 6.83549e-013 2.67962e-013 -1.11319e-013 10.553 34.9175 -66.04 25.2483 -21.6395 -53.8436 7.73399 -59.1208 13.5928 1.40317e-009 -3.1178e-009 -5.91488e-011 2.42017e-009 -5.26813e-009 -4.30544e-011 1.40317e-009 -3.11781e-009 -5.91424e-011 -7.73091 5.47488 -0.417314 1.40318e-009 -3.11782e-009 -5.91615e-011 -2.90554 0.965183 -0.102902 1.40317e-009 -3.1178e-009 -5.91512e-011 -10.2786 0.731801 -0.0259123 1.40318e-009 -3.1178e-009 -5.91615e-011 -2.22167 -0.733487 0.20892 -2.03217e-016 0 -3.88251e-019 4.37991 -8.1561 24.8875 0.0468496 -1.30601 0.380204 -4.0281 -4.07709 -21.8333 2.03217e-016 0 3.88251e-019 -1.67353 -5.32927 -53.9366 0.136494 14.3208 0.961903 36.3049 -22.389 69.2844 
1.63482 82.5436 53.1754 -5.44735 10.7514 -5.25198 2.38945 -7.15918 8.2091 -3.41643 -7.11798 1.8514 -1.24748 -2.43997 -3.78655 11.636 8.78648 -8.01411 -0 0 0 -0 0 0 5.85583e-013 2.94312e-013 -8.82515e-014 -16.9986 35.5678 86.4158 -26.8073 -25.7147 60.445 -0.119404 10.696 1.51514 -3.77241e-009 -3.02351e-009 8.34854e-010 -6.51436e-009 -5.21181e-009 1.46695e-009 -3.77241e-009 -3.02351e-009 8.34848e-010 7.73091 5.47488 0.417314 -3.77241e-009 -3.02351e-009 8.34855e-010 2.90554 0.965183 0.102902 -3.7724e-009 -3.02351e-009 8.34851e-010 10.2786 0.731801 0.0259123 -3.77241e-009 -3.02351e-009 8.34859e-010 2.22167 -0.733487 -0.20892 5.855e-013 2.94313e-013 -8.83435e-014 9.18005 35.0603 -66.304 25.0773 -21.2639 -53.2147 8.35338 -60.1566 14.2704 1.10868e-009 -4.5116e-009 -4.39994e-010 1.93011e-009 -7.73786e-009 -7.11594e-010 1.10867e-009 -4.51162e-009 -4.39987e-010 -7.73091 5.47488 -0.417314 1.10868e-009 -4.51163e-009 -4.40006e-010 -2.90554 0.965183 -0.102902 1.10867e-009 -4.5116e-009 -4.39996e-010 -10.2786 0.731801 -0.0259123 1.10869e-009 -4.51161e-009 -4.40008e-010 -2.22167 -0.733487 0.20892 -2.03217e-016 0 -3.88251e-019 4.40484 -8.01958 24.8063 0.046294 -1.29529 0.374076 -4.08222 -4.10611 -22.0627 2.03217e-016 0 3.88251e-019 -1.51716 -5.30473 -53.6755 0.127745 14.123 0.896775 35.0244 -21.9777 68.6117 
1.66627 82.5256 53.1854 -5.57082 10.6564 -4.88339 2.4652 -7.25608 7.95783 -3.33349 -7.07915 1.78538 -1.20828 -2.51941 -3.78256 11.5655 9.33069 -8.06733 -0 0 0 -0 0 0 3.67756e-013 3.09806e-013 -4.11826e-014 -16.584 35.7373 85.5376 -26.9346 -26.1213 61.0844 -0.224836 14.3845 2.056 -2.7258e-009 -2.6981e-009 6.038e-010 -4.70786e-009 -4.65455e-009 1.06252e-009 -2.7258e-009 -2.6981e-009 6.03793e-010 7.73091 5.47488 0.417314 -2.7258e-009 -2.6981e-009 6.03801e-010 2.90554 0.965183 0.102902 -2.7258e-009 -2.6981e-009 6.03797e-010 10.2786 0.731801 0.0259123 -2.72581e-009 -2.6981e-009 6.03807e-010 2.22167 -0.733487 -0.20892 3.67681e-013 3.09805e-013 -4.12851e-014 8.01523 35.3735 -66.8008 24.8821 -20.8469 -52.5189 7.73816 -58.949 13.5658 5.36381e-010 -6.25899e-009 -9.93517e-010 9.69249e-010 -1.08591e-008 -1.68928e-009 5.36378e-010 -6.25899e-009 -9.9351e-010 -7.73091 5.47488 -0.417314 5.36384e-010 -6.259e-009 -9.93528e-010 -2.90554 0.965183 -0.102902 5.36373e-010 -6.25898e-009 -9.93519e-010 -10.2786 0.731801 -0.0259123 5.36387e-010 -6.25899e-009 -9.93535e-010 -2.22167 -0.733487 0.20892 -2.03217e-016 0 -3.88251e-019 4.45275 -7.8748 24.7253 0.0452431 -1.29443 0.365234 -4.13306 -4.11364 -22.336 2.03217e-016 0 3.88251e-019 -1.31247 -5.30266 -53.3325 0.117047 13.888 0.817285 33.4774 -21.4499 67.806 
1.70524 82.5106 53.1957 -5.66882 10.558 -4.55022 2.51645 -7.32709 7.72204 -3.24779 -7.05265 1.7243 -1.18396 -2.59834 -3.78215 11.5169 9.83677 -8.12166 -0 0 0 -0 0 0 1.18607e-013 3.12726e-013 9.41936e-015 -16.0792 35.8815 84.6735 -27.0292 -26.4348 61.5716 -0.389952 18.0104 2.61191 -1.44203e-009 -2.15056e-009 3.26305e-010 -2.49165e-009 -3.71468e-009 5.75158e-010 -1.44203e-009 -2.15056e-009 3.26297e-010 7.73091 5.47488 0.417314 -1.44203e-009 -2.15056e-009 3.26306e-010 2.90554 0.965183 0.102902 -1.44202e-009 -2.15056e-009 3.26302e-010 10.2786 0.731801 0.0259123 -1.44203e-009 -2.15056e-009 3.26314e-010 2.22167 -0.733487 -0.20892 1.18537e-013 3.12724e-013 9.29551e-015 7.09306 35.821 -67.3755 24.717 -20.5024 -51.9573 6.83429 -57.0117 12.5229 -9.30142e-011 -7.85383e-009 -1.54372e-009 -9.00033e-011 -1.37182e-008 -2.6635e-009 -9.30164e-011 -7.85383e-009 -1.54372e-009 -7.73091 5.47488 -0.417314 -9.3012e-011 -7.85383e-009 -1.54373e-009 -2.90554 0.965183 -0.102902 -9.3023e-011 -7.85382e-009 -1.54372e-009 -10.2786 0.731801 -0.0259123 -9.30102e-011 -7.85384e-009 -1.54374e-009 -2.22167 -0.733487 0.20892 -2.03217e-016 0 -3.88251e-019 4.47813 -7.74043 24.6569 0.0443503 -1.29093 0.356943 -4.17697 -4.10901 -22.592 2.03217e-016 0 3.88251e-019 -1.14013 -5.30314 -52.9949 0.106792 13.6747 0.742142 32.0337 -20.931 67.0569 
1.74788 82.4978 53.2048 -5.68966 10.4494 -4.3314 2.47666 -7.34095 7.53196 -3.16989 -7.07169 1.67573 -1.1794 -2.62856 -3.78629 11.5316 10.2113 -8.17252 -0 0 0 -0 0 0 -7.3416e-014 3.01358e-013 4.29872e-014 -15.5121 36.0066 83.9047 -27.0772 -26.599 61.8352 -0.569656 20.9369 3.08234 -3.6265e-010 -1.50415e-009 1.56747e-010 -6.27911e-010 -2.60386e-009 2.72543e-010 -3.6265e-010 -1.50415e-009 1.56738e-010 7.73091 5.47488 0.417314 -3.62653e-010 -1.50415e-009 1.56747e-010 2.90554 0.965183 0.102902 -3.62642e-010 -1.50415e-009 1.56744e-010 10.2786 0.731801 0.0259123 -3.62655e-010 -1.50415e-009 1.56757e-010 2.22167 -0.733487 -0.20892 -7.34906e-014 3.01357e-013 4.28381e-014 6.44325 36.3742 -67.8697 24.6466 -20.3575 -51.7252 6.365 -55.8778 11.9703 -5.58804e-010 -8.79005e-009 -1.91461e-009 -8.75224e-010 -1.54015e-008 -3.32168e-009 -5.58806e-010 -8.79004e-009 -1.91461e-009 -7.73091 5.47488 -0.417314 -5.58803e-010 -8.79004e-009 -1.91462e-009 -2.90554 0.965183 -0.102902 -5.58813e-010 -8.79003e-009 -1.91462e-009 -10.2786 0.731801 -0.0259123 -5.58802e-010 -8.79005e-009 -1.91463e-009 -2.22167 -0.733487 0.20892 -2.03217e-016 0 -3.88251e-019 4.4353 -7.63525 24.6133 0.0442742 -1.27229 0.352466 -4.21044 -4.10161 -22.7692 2.03217e-016 0 3.88251e-019 -1.081 -5.28654 -52.7501 0.0999486 13.5422 0.689907 31.0488 -20.5697 66.538 
1.78445 82.4923 53.2114 -5.57561 10.3105 -4.27426 2.26591 -7.24277 7.39637 -3.09197 -7.17322 1.64311 -1.20286 -2.58551 -3.79104 11.6446 10.3988 -8.20683 -0 0 0 -0 0 0 -1.95927e-013 2.70812e-013 4.96892e-014 -14.9104 36.0979 83.2768 -27.0725 -26.5846 61.8281 -0.712906 23.0503 3.43203 5.01312e-010 -6.43696e-010 1.41326e-010 8.64383e-010 -1.12409e-009 2.32091e-010 5.01313e-010 -6.43692e-010 1.41317e-010 7.73091 5.47488 0.417314 5.01309e-010 -6.43694e-010 1.41326e-010 2.90554 0.965183 0.102902 5.01319e-010 -6.43692e-010 1.41324e-010 10.2786 0.731801 0.0259123 5.01308e-010 -6.43693e-010 1.41336e-010 2.22167 -0.733487 -0.20892 -1.96024e-013 2.70813e-013 4.95051e-014 6.14024 37.0657 -68.2631 24.7024 -20.4714 -51.9195 6.39339 -55.9508 12.0043 -8.23863e-010 -8.86338e-009 -2.06019e-009 -1.32415e-009 -1.55435e-008 -3.58275e-009 -8.23865e-010 -8.86338e-009 -2.06018e-009 -7.73091 5.47488 -0.417314 -8.23862e-010 -8.86337e-009 -2.06019e-009 -2.90554 0.965183 -0.102902 -8.23871e-010 -8.86336e-009 -2.06019e-009 -10.2786 0.731801 -0.0259123 -8.23861e-010 -8.86338e-009 -2.0602e-009 -2.22167 -0.733487 0.20892 -2.03217e-016 0 -3.88251e-019 4.26241 -7.56735 24.6125 0.0455649 -1.22601 0.35384 -4.23275 -4.08848 -22.849 2.03217e-016 0 3.88251e-019 -1.21667 -5.24036 -52.6482 0.0989026 13.5332 0.670384 30.7111 -20.4625 66.3346 
